<?xml version="1.0" encoding="UTF-8"?>
<svg id="Layer_2" data-name="Layer 2" xmlns="http://www.w3.org/2000/svg" viewBox="0 0 45.71 88.56">
  <defs>
    <style>
      .cls-1 {
        fill: #fff;
      }

      .cls-2 {
        opacity: .88;
      }
    </style>
  </defs>
  <g id="Layer_1-2" data-name="Layer 1">
    <g class="cls-2">
      <path class="cls-1" d="M45.71,67.69c-.6,.46-1.12,1-1.68,1.51-1.69,1.54-3.37,3.09-5.05,4.63-1.7,1.56-3.4,3.13-5.1,4.69-1.59,1.46-3.18,2.91-4.77,4.37-1.55,1.43-3.1,2.86-4.65,4.29-.47,.43-.94,.86-1.4,1.29-.12,.11-.19,.12-.32,0-.97-.89-1.94-1.78-2.91-2.67-1.3-1.19-2.6-2.37-3.89-3.56-1.51-1.38-3.01-2.76-4.52-4.14-1.52-1.39-3.04-2.78-4.56-4.18-1.3-1.19-2.59-2.38-3.88-3.57-.94-.86-1.87-1.72-2.81-2.57-.1-.09-.17-.18-.15-.33,0-.08,0-.17,0-.25,0-22.28,0-44.56,0-66.84,0-.12-.01-.24-.02-.36C15.15,0,30.31,0,45.46,0c.21,0,.25,.05,.25,.25,0,22.48,0,44.96,0,67.43Zm-1.53-33.21s-.04,0-.05,0c0-2.56,0-5.11,0-7.67,0-7.66-.02-15.32-.02-22.98,0-.28-.07-.35-.35-.35-3.08,.01-6.16,0-9.24,0-1.13,0-2.25,0-3.38,0-.21,0-.27-.06-.26-.26,.02-.43-.01-.87,.01-1.3,.02-.27-.06-.33-.33-.33-4.38,0-8.76,0-13.14,0-.76,0-1.51,0-2.27,0-.2,0-.28,.04-.27,.26,.02,.43-.01,.87,.01,1.3,.01,.26-.05,.34-.33,.34-4.21,0-8.41,0-12.62-.01-.23,0-.29,.05-.29,.29,0,3.02-.02,6.04-.03,9.05-.03,10.04,0,20.08-.05,30.13-.03,7.45-.02,14.9-.03,22.35,0,.19,.05,.32,.2,.45,2.29,2.02,4.57,4.04,6.86,6.06,2.02,1.79,4.05,3.58,6.07,5.37,.16,.14,.23,.29,.22,.5-.01,.43,0,.87,0,1.3,0,.17,.05,.29,.18,.41,.85,.75,1.7,1.5,2.55,2.25,1.7,1.51,3.41,3.02,5.11,4.54,.12,.11,.21,.17,.37,.03,2.42-2.18,4.84-4.35,7.28-6.5,.4-.35,.6-.69,.53-1.22-.04-.37-.1-.8,.03-1.12,.13-.3,.5-.49,.77-.73,0,0,.01-.01,.02-.02,1.99-1.77,3.98-3.55,5.97-5.32,2.1-1.87,4.2-3.74,6.3-5.61,.17-.15,.23-.3,.23-.52-.02-3.11-.03-6.22-.03-9.33,0-7.12,0-14.23,0-21.35Z"/>
      <path class="cls-1" d="M31.49,74.97v-28.66s-.03,0-.05,0c-.11,.37-.24,.73-.32,1.1-.06,.28-.17,.33-.43,.24-.31-.11-.64-.16-.96-.26-.14-.04-.19,0-.18,.14,0,.08,0,.17,0,.25,0,10.36,0,20.71,0,31.07,0,.27-.08,.44-.28,.61-2.09,1.82-4.18,3.65-6.27,5.48-.14,.13-.22,.12-.36,0-1.69-1.5-3.38-2.99-5.08-4.49-.39-.35-.78-.7-1.18-1.04-.16-.14-.22-.28-.22-.5,0-3.87,0-7.74,0-11.6,0-6.54,0-13.07,0-19.61,0-.35,0-.35-.34-.26-.3,.08-.61,.15-.91,.23-.15,.04-.23,.02-.27-.16-.1-.41-.22-.81-.38-1.21v28.74c-.3-.27-.55-.49-.8-.71-3.53-3.22-7.05-6.44-10.59-9.65-.32-.29-.45-.57-.45-1.01,.02-3.72,.02-7.44,.02-11.16,.02-10.98,.02-21.97,.06-32.95,.02-4.95,.02-9.9,.02-14.84,0-.27,.06-.33,.33-.33,3.7,0,7.4,0,11.09,0,.24,0,.31,.06,.31,.31,0,5.55,0,11.1,0,16.64,0,.11,0,.22,0,.33,.01,0,.03,0,.04,0,.11-.39,.24-.79,.34-1.18,.04-.17,.1-.22,.28-.17,.32,.1,.65,.15,.96,.25,.26,.09,.31,0,.29-.24,0-.05,0-.11,0-.17,0-5.7,0-11.41,0-17.11,0-.28,.07-.35,.35-.35,4.23,0,8.47,.01,12.7,0,.29,0,.34,.09,.34,.35,0,5.74,0,11.48,0,17.22q0,.35,.34,.26c.31-.08,.63-.14,.94-.24,.16-.05,.21,0,.25,.14,.12,.43,.24,.87,.4,1.3,0-.11,0-.22,0-.33,0-5.57,0-11.13,0-16.7,0-.28,.07-.35,.35-.35,3.67,.01,7.34,0,11.01,0q.37,0,.37,.38c.01,10.03,.02,20.07,.03,30.1,.01,9.67,.03,19.35,.05,29.02,0,.27-.07,.46-.27,.64-3.78,3.44-7.55,6.88-11.32,10.33-.05,.05-.09,.11-.2,.11ZM16.27,21.11s0,0-.01,0c0,0,.01,0,.02,0-.03,.06,0,.11,.03,.15,.8,1.58,1.61,3.17,2.41,4.75,.1,.2,.2,.11,.33,.07,.17-.05,.14-.14,.08-.27-.66-1.46-1.32-2.92-1.98-4.38-.04-.08-.07-.18-.17-.2-.24-.04-.46-.13-.7-.13Zm-2.06,20.21c.13,.06,.28,.11,.29,.29-.36,.35-.72,.69-1.11,1.06,.24,.07,.42,.18,.47,.51,.39-.41,.74-.77,1.09-1.14,.2,.07,.32,.2,.34,.42-.35,.4-.71,.8-1.06,1.2-.06,.07-.16,.13-.12,.26,.06,.18,.13,.37,.2,.58,.51-.6,.98-1.17,1.46-1.74,.14,.02,.26,.09,.33,.22-.52,.69-1.04,1.38-1.56,2.08-.05,.07-.15,.13-.12,.23,.08,.24,.12,.49,.26,.72,.63-.91,1.26-1.8,1.88-2.69,.14,0,.22,.07,.27,.19-.02,.05-.04,.1-.07,.15-.62,.99-1.23,1.98-1.87,2.96-.17,.27-.04,.49,0,.73,0,.04,.04,.08,.08,.06,.19-.1,.45-.07,.57-.29,.62-1.12,1.24-2.23,1.86-3.35,.12,.05,.2,.16,.33,.17-.5,.98-.99,1.97-1.5,2.98,.2-.04,.37-.09,.54-.1,.23-.02,.35-.13,.44-.34,.33-.76,.68-1.51,1.02-2.26,.16-.03,.24,.12,.37,.17-.27,.68-.54,1.36-.81,2.04,.14,.03,.24-.02,.35-.03,.27-.02,.41-.14,.49-.42,.13-.47,.32-.91,.49-1.37,.2-.03,.37,.08,.55,.12-.12,.4-.24,.81-.36,1.22-.02,.06-.1,.2,.06,.16,.22-.05,.37,.06,.54,.19,.13-.49,.24-.95,.36-1.41,.16-.05,.27,.11,.41,.11-.1,.5-.2,.99-.29,1.49-.02,.11-.1,.23,.02,.34,.15,.13,.3,.26,.48,.42,.12-.77,.23-1.48,.34-2.2,.12,.08,.26,.09,.4,.11,0,.07,0,.15-.01,.22-.08,.75-.17,1.5-.25,2.25-.01,.1-.03,.2,.06,.28,.17,.15,.34,.3,.55,.49,.08-1.11,.15-2.18,.22-3.24,.12,0,.25,0,.37,0-.04,1.24-.08,2.49-.11,3.73,0,.27,.25,.37,.39,.54,.03,.03,.07,0,.09-.02,.16-.2,.36-.36,.35-.68-.06-1.19-.08-2.38-.11-3.57,.12,0,.23,0,.35,0,.03,.4,.07,.81,.1,1.21,.05,.66,.09,1.31,.14,2.02,.16-.14,.28-.27,.42-.37,.19-.13,.22-.28,.19-.51-.09-.78-.22-1.56-.25-2.35,.13-.03,.25-.07,.39-.06,.12,.7,.23,1.4,.35,2.14,.13-.11,.21-.21,.31-.27,.22-.13,.24-.3,.18-.54-.12-.49-.21-.99-.31-1.49,.15-.01,.29-.09,.44-.07,.11,.46,.23,.92,.35,1.42,.19-.21,.4-.24,.65-.2-.14-.48-.27-.93-.4-1.37,.17-.08,.34-.16,.54-.13,.18,.5,.36,1,.55,1.5,.03,.09,.03,.21,.16,.23,.2,.03,.39,.11,.62,.1-.27-.69-.53-1.37-.79-2.04,.07-.14,.26-.07,.35-.19,.36,.78,.71,1.56,1.07,2.33,.04,.09,.06,.21,.2,.24,.23,.04,.46,.1,.7,.15,.01-.1-.04-.16-.07-.22-.46-.91-.92-1.83-1.37-2.74,.11-.07,.22-.08,.35-.07,.04,.07,.09,.14,.13,.21,.54,.97,1.1,1.94,1.62,2.92,.15,.27,.4,.29,.63,.4,.05,.02,.1,0,.1-.05,.03-.25,.16-.48-.02-.76-.66-1-1.28-2.03-1.91-3.04,.1-.06,.08-.26,.26-.23,.62,.9,1.24,1.8,1.89,2.73,.06-.18,.08-.33,.15-.46,.14-.25,.05-.43-.11-.64-.5-.64-.97-1.29-1.46-1.94,.06-.17,.2-.19,.36-.19,.46,.55,.93,1.11,1.39,1.67,.1-.11,.09-.24,.15-.34,.13-.23,.05-.39-.12-.57-.37-.38-.71-.79-1.06-1.19,.14-.11,.2-.32,.41-.34,.36,.35,.73,.71,1.13,1.1,0-.33,.23-.39,.43-.49-.39-.37-.76-.71-1.13-1.06,0-.18,.22-.19,.28-.33,.45,.38,.9,.76,1.34,1.14,.07,.06,.12,.15,.23,.11,.2-.06,.4-.12,.63-.19-.63-.5-1.22-.97-1.82-1.44-.02-.17,.1-.25,.21-.33,.72,.51,1.44,1.02,2.16,1.53,.09,.06,.16,.16,.29,.11,.23-.08,.45-.14,.72-.23-.12-.08-.21-.14-.3-.2-.85-.56-1.69-1.11-2.54-1.67-.01-.14,.06-.22,.18-.28,.11,.06,.23,.12,.34,.18,.98,.58,1.97,1.16,2.94,1.76,.25,.15,.48,.04,.71,.01,.08-.01,.06-.07,.04-.12-.08-.26-.14-.53-.46-.64-.16-.05-.31-.16-.46-.24-.93-.5-1.86-1-2.79-1.5-.02-.14,.16-.15,.17-.27,1.01,.47,2.02,.95,3.03,1.43-.02-.66-.09-.77-.64-1.01-.72-.31-1.45-.63-2.17-.94-.02-.16,.04-.27,.19-.33,.72,.26,1.43,.53,2.17,.8-.03-.14-.05-.23-.06-.32-.02-.3-.18-.44-.47-.52-.49-.14-.97-.33-1.46-.49-.1-.2,.02-.36,.11-.52,.05,0,.11,.01,.16,.03,.39,.11,.78,.22,1.17,.33,.06,.02,.21,.09,.17-.05-.06-.22,.08-.35,.18-.53-.52-.13-1.02-.26-1.52-.39,0-.1-.09-.14-.17-.15-.42-.08-.81-.24-1.23-.34-.17-.04-.21-.07-.06-.19,1.08,.2,2.15,.4,3.23,.6,.11,.02,.21,.08,.31-.03,.13-.15,.27-.29,.43-.47-1.47-.22-2.9-.43-4.33-.63-.39-.06-.39-.05-.45,.36-.22,.12-.58,.03-.79-.2,0-.05,.02-.11,.02-.16,.12-.03,.13-.09,.04-.17,.03-.58,.1-1.17,.03-1.75-.09,.01-.1,.08-.13,.12-1.09,1.76-2.19,3.52-3.27,5.29-.14,.24-.25,.26-.49,.16-1-.4-2.02-.72-3.11-.64-.74,.06-1.47,.05-2.21,0-1.15-.08-2.24,.26-3.3,.67-.15,.06-.23,.07-.33-.09-1.07-1.75-2.15-3.49-3.24-5.24-.06-.09-.09-.22-.25-.29,0,.28,0,.53,0,.78,0,.26,.02,.52,.03,.77-.08,.09-.1,.17,.04,.22,0,.05,.01,.1,.02,.16,0,.02,.02,.04,.03,.06,.01,.06,.02,.11,.03,.17-.28,.09-.56,.16-.85,.17,.02-.42,.01-.44-.37-.38-.83,.12-1.65,.24-2.48,.36-.61,.09-1.23,.18-1.85,.27,.04,.12,.14,.17,.19,.25,.16,.26,.36,.29,.65,.23,.81-.17,1.62-.31,2.44-.45,.02,.34-.28,.27-.46,.33-.14,.05-.27,.05-.26,.24-.53,.12-1.06,.24-1.6,.36,.08,.18,.26,.25,.19,.45-.07,.2,.04,.18,.18,.14,.44-.13,.88-.24,1.33-.36,.16,.14,.18,.31,.13,.51-.53,.22-1.09,.37-1.64,.57-.09,.03-.21,.03-.24,.16-.04,.19-.08,.39-.13,.62,.79-.3,1.53-.58,2.28-.87,0,.14,.13,.24,.12,.38-.83,.36-1.65,.71-2.48,1.07-.09,.04-.2,.05-.23,.17-.05,.23-.11,.46-.17,.74,1.05-.5,2.05-.97,3.05-1.44,.02,.13,.24,.08,.22,.25-.08,.05-.15,.1-.24,.14-1.04,.55-2.08,1.11-3.13,1.65-.28,.14-.29,.4-.39,.63-.03,.08,.04,.09,.09,.1,.26,.05,.49,.1,.76-.07,1.06-.65,2.14-1.27,3.21-1.9,.12,.07,.14,.18,.13,.31-.92,.61-1.85,1.21-2.81,1.85,.19,.06,.34,.08,.47,.14,.26,.13,.45,.05,.67-.11,.66-.49,1.33-.95,2-1.42,.08,.11,.27,.1,.28,.28-.6,.48-1.21,.95-1.84,1.45,.15,.05,.27,.07,.37,.12,.24,.13,.42,.05,.61-.12,.38-.34,.79-.66,1.18-.99Zm-.76,31.51v-.37c0-9.63,0-19.25,0-28.88,0-.3-.08-.41-.37-.48-1.37-.36-2.74-.74-4.11-1.1-.19-.05-.24-.12-.18-.32,.37-1.31,.72-2.63,1.09-3.94,.07-.25,.05-.41-.15-.6-1.01-.97-1.99-1.97-3-2.95-.14-.14-.16-.21,0-.36,1.02-.98,2.02-1.98,3.03-2.96,.15-.14,.18-.26,.13-.45-.37-1.38-.73-2.76-1.1-4.14-.04-.17-.01-.22,.15-.26,1.37-.36,2.74-.73,4.11-1.08,.3-.07,.4-.2,.4-.51,0-6.25,0-12.5,0-18.75,0-.26-.07-.32-.32-.32-3.14,0-6.29,0-9.43,0-.41,0-.36-.05-.36,.37-.02,11.98,0,23.96-.05,35.94-.03,7.13-.01,14.27-.03,21.4,0,.36,.11,.59,.37,.82,2.59,2.34,5.18,4.7,7.76,7.04,.67,.61,1.34,1.21,2.06,1.87Zm18.86-.03c.07-.06,.1-.07,.13-.1,.87-.79,1.73-1.58,2.6-2.36,2.42-2.2,4.85-4.4,7.27-6.6,.14-.12,.19-.25,.19-.43-.01-1.31-.03-2.62-.03-3.93-.02-12.41-.04-24.83-.06-37.24,0-5.48-.01-10.97-.01-16.45,0-.25-.05-.32-.31-.32-3.16,0-6.33,0-9.49,0-.22,0-.29,.05-.29,.29,0,6.3,0,12.59,0,18.89,0,.19,.05,.27,.24,.32,1.39,.37,2.77,.76,4.16,1.12,.25,.07,.29,.16,.22,.4-.36,1.29-.7,2.6-1.07,3.89-.07,.26-.02,.42,.16,.6,1,.97,1.98,1.96,2.98,2.93,.18,.17,.14,.25-.01,.4-1.01,.98-2.02,1.97-3.03,2.96-.13,.13-.16,.23-.11,.41,.37,1.35,.71,2.71,1.08,4.06,.07,.26,0,.33-.24,.39-1.31,.34-2.62,.68-3.93,1.03-.48,.13-.46,.01-.46,.6,0,9.6,0,19.2,0,28.8v.36Zm-15.2-9.9c0,5.16,0,10.32,0,15.48,0,.18,.04,.3,.18,.43,1.81,1.61,3.62,3.22,5.43,4.84,.16,.14,.24,.12,.38,0,1.77-1.6,3.55-3.2,5.33-4.79,.17-.15,.23-.3,.23-.52,0-10.25,0-20.49,0-30.74,0-.09,0-.19,0-.28,.02-.16-.04-.22-.2-.26-.62-.15-1.23-.3-1.84-.48-.17-.05-.28-.02-.41,.11-1.04,1-2.1,1.99-3.14,3-.14,.14-.21,.12-.35,0-1.02-1-2.06-1.99-3.08-2.98-.12-.12-.23-.15-.39-.1-.6,.16-1.21,.32-1.82,.45-.24,.05-.31,.15-.31,.4,0,5.15,0,10.3,0,15.45Zm0-50.68c0,2.8,0,5.59,0,8.39,0,.21,.06,.3,.27,.35,.57,.13,1.15,.27,1.71,.44,.22,.07,.36,.03,.53-.13,1.02-.99,2.06-1.96,3.08-2.94,.15-.15,.23-.13,.37,0,1.02,.99,2.04,1.97,3.06,2.96,.13,.13,.24,.15,.41,.11,.62-.17,1.25-.32,1.87-.46,.19-.04,.24-.13,.24-.32,0-5.59,0-11.18,0-16.78,0-.24-.07-.28-.29-.28-3.65,0-7.3,0-10.95,0-.26,0-.3,.08-.3,.31,0,2.79,0,5.57,0,8.36Zm13.26,18.65c-1.14-2.74-4.33-5.18-8.4-4.77-3.3,.34-5.79,2.65-6.57,4.78,.1-.04,.18-.07,.26-.1,1.17-.46,2.35-.84,3.61-.94,1.29-.1,2.5,.09,3.49,1.01,.09,.09,.14,.06,.22-.02,.78-.73,1.74-1,2.78-1.02,1.01-.02,1.99,.18,2.95,.49,.55,.17,1.09,.38,1.64,.57Zm-7.03,6.32c.17-.02,.35-.06,.53-.08,1.03-.11,1.99,.15,2.93,.53,.16,.07,.22,.03,.3-.1,.36-.63,.74-1.25,1.11-1.88,.77-1.3,1.53-2.6,2.3-3.9,.04-.07,.16-.15,0-.23-1.44-.73-2.92-1.3-4.58-1.24-.88,.03-1.68,.29-2.36,.88-.14,.12-.21,.25-.2,.45,0,1.24,0,2.47-.01,3.71,0,.62,0,1.23,0,1.86Zm-.92-2.93s-.04,0-.05,0c0-.85-.01-1.7,0-2.55,0-.29-.1-.47-.32-.64-.98-.76-2.1-.87-3.28-.73-1.19,.14-2.29,.57-3.36,1.11-.23,.11-.28,.18-.14,.42,1.13,1.88,2.24,3.76,3.35,5.65,.09,.16,.15,.19,.33,.12,1.05-.42,2.13-.7,3.28-.46,.16,.03,.18-.04,.18-.17,0-.91,0-1.83,0-2.74Zm.7-12.15s.05,0,.07,0c.03-.96,.05-1.92,.09-2.87,.02-.31-.22-.45-.36-.65-.03-.04-.07-.03-.09,0-.15,.2-.4,.31-.38,.63,.04,.65,.04,1.31,.06,1.96,.03,1.28,.07,2.56,.1,3.84,0,.24,.13,.22,.29,.23,.21,.02,.22-.1,.22-.25,0-.97,0-1.94,0-2.9ZM6.98,33.98c.23,.3,.52,.43,.92,.42,1.59-.06,3.18-.08,4.78-.12,.34,0,.68-.02,1.02-.04,.07,0,.14,.03,.18-.08,.08-.25-.02-.4-.27-.41-1.9-.04-3.81-.07-5.71-.15-.39-.01-.67,.1-.91,.38Zm23.99-12.84c-.04-.17-.07-.32-.1-.48-.01-.05-.04-.09-.1-.07-.21,.09-.46,.09-.6,.34-.96,1.73-1.92,3.46-2.9,5.19-.09,.16-.06,.23,.09,.29,.12,.05,.22,.17,.35-.04,1.05-1.69,2.11-3.37,3.17-5.06,.04-.06,.1-.12,.09-.18Zm7.8,12.84c-.4-.38-.4-.38-.94-.36-1.91,.05-3.83,.09-5.74,.13-.21,0-.21,.09-.21,.25,0,.15,0,.25,.21,.25,1.91,.04,3.83,.08,5.74,.16,.41,.02,.7-.12,.94-.42ZM14.95,20.59s-.06,0-.07,.06c-.05,.25-.15,.48,.02,.76,1.05,1.63,2.08,3.28,3.1,4.93,.12,.2,.21,.17,.38,.08,.21-.1,.13-.2,.05-.34-.94-1.68-1.89-3.37-2.82-5.06-.15-.28-.4-.32-.67-.43Zm21.21,5.56c-.08-.03-.16,.02-.24,.07-1.73,1.03-3.46,2.06-5.2,3.09-.14,.08-.19,.15-.08,.29,.09,.12,.11,.26,.32,.14,1.78-.95,3.56-1.89,5.34-2.83,.07-.04,.15-.07,.19-.15,.24-.42,.16-.57-.33-.61Zm-26.62,0c-.09,.01-.23,.04-.38,.06-.05,0-.11,.03-.08,.08,.1,.22,.08,.48,.35,.62,1.77,.92,3.54,1.85,5.29,2.8,.22,.12,.27,.02,.37-.12,.13-.19,0-.23-.12-.3-1.71-1.02-3.42-2.03-5.12-3.05-.08-.05-.15-.11-.31-.09Zm.02,1.38c.05,.2,.1,.33,.11,.47,.03,.26,.15,.4,.41,.51,1.45,.6,2.9,1.22,4.34,1.85,.19,.08,.24,.02,.33-.13,.1-.19-.02-.22-.13-.27-.85-.41-1.69-.81-2.54-1.22-.82-.39-1.64-.79-2.52-1.21Zm28.11,5.6c-.15-.16-.28-.27-.37-.4-.14-.2-.33-.23-.55-.2-.46,.06-.91,.11-1.37,.16-1.12,.12-2.23,.25-3.35,.36-.2,.02-.21,.1-.2,.27,.02,.18,.1,.18,.26,.17,1.38-.09,2.76-.17,4.13-.26,.46-.03,.93-.06,1.45-.1Zm0,1.74c-.53-.03-.99-.07-1.46-.09-1.39-.09-2.77-.17-4.16-.27-.18-.01-.21,.08-.23,.22-.02,.15,.03,.21,.19,.22,1.63,.17,3.25,.35,4.88,.52,.08,0,.17,.04,.24-.03,.17-.18,.33-.35,.54-.57Zm-15.73-15.23c-.13,.11-.23,.22-.35,.3-.22,.15-.27,.33-.24,.59,.11,.85,.2,1.7,.29,2.55,.08,.66,.15,1.32,.23,1.98,.01,.11,0,.25,.21,.24,.23-.01,.29-.09,.26-.29-.02-.12-.03-.24-.04-.36-.08-1.31-.16-2.61-.25-3.92-.03-.35,0-.71-.1-1.08Zm-13.89,15.23c.16,.17,.28,.29,.39,.43,.13,.17,.27,.2,.48,.18,1.59-.18,3.18-.35,4.77-.51,.18-.02,.2-.08,.2-.24,0-.18-.07-.22-.23-.21-.6,.04-1.19,.08-1.79,.12-1.25,.08-2.5,.15-3.81,.24Zm23.02-12.87s-.07,.03-.08,.05c-1.03,1.5-2.07,3.01-3.1,4.51-.1,.15,0,.19,.09,.25,.09,.06,.16,.16,.29,0,.98-1.31,1.98-2.62,2.97-3.92,.05-.07,.1-.13,.06-.22-.08-.21-.15-.43-.22-.66Zm-20.56,4.01s0,.05,0,.05c1.56,1.02,3.13,2.03,4.69,3.06,.18,.12,.19-.06,.26-.13,.12-.1,.06-.18-.05-.26-1.34-.95-2.68-1.91-4.02-2.87-.07-.05-.13-.09-.22-.06-.22,.08-.45,.14-.67,.21Zm13.23-6.4c-.01,.23-.02,.39-.03,.55-.11,1.62-.22,3.24-.33,4.85,0,.13-.05,.27,.19,.27,.19,0,.25-.05,.27-.24,.17-1.56,.35-3.11,.53-4.66,.01-.09,.03-.18-.05-.26-.18-.16-.35-.32-.57-.52Zm12.39,7.98c-.05,0-.08,0-.1,0-1.67,.8-3.33,1.6-5,2.39-.17,.08-.08,.17-.04,.26,.05,.12,.09,.2,.26,.13,1.52-.66,3.04-1.3,4.57-1.95,.08-.03,.15-.07,.17-.16,.05-.22,.1-.44,.15-.68Zm-28.09,5.55c.51,.04,.97,.07,1.43,.1,1.38,.09,2.76,.17,4.13,.25,.12,0,.26,.08,.27-.15,0-.16,.01-.29-.21-.29-.16,0-.33-.04-.49-.05-1.45-.16-2.89-.31-4.34-.47-.1-.01-.2-.04-.28,.06-.15,.17-.31,.33-.51,.54Zm21.44-12.01c-.2-.02-.35,.07-.51,.07-.26,0-.37,.16-.47,.39-.62,1.4-1.26,2.8-1.89,4.2-.06,.13-.14,.23,.08,.32,.17,.07,.24,.06,.33-.12,.46-.92,.93-1.84,1.39-2.76,.35-.7,.71-1.39,1.07-2.1Zm5.76,4.92c-.23-.07-.4-.11-.55-.18-.19-.08-.33-.04-.5,.08-1.29,.93-2.59,1.86-3.89,2.78-.09,.07-.22,.11-.09,.27,.1,.12,.15,.23,.34,.1,.51-.35,1.03-.68,1.55-1.01,1.03-.67,2.05-1.33,3.14-2.04Zm-20.6-4.08c-.08,.23-.12,.42-.19,.59-.07,.16-.03,.27,.07,.4,.97,1.27,1.93,2.54,2.89,3.81,.1,.14,.17,.17,.32,.06,.15-.11,.15-.18,.05-.32-.65-.93-1.29-1.86-1.93-2.8-.39-.57-.78-1.13-1.2-1.74Zm21.01,7.12s-.05-.01-.06,0c-1.41,.54-2.82,1.07-4.23,1.6-.15,.06-.14,.12-.09,.25,.05,.15,.11,.2,.28,.15,1.26-.43,2.53-.84,3.79-1.26,.1-.03,.18-.08,.2-.2,.03-.18,.07-.36,.11-.54Zm.77,3.01c-.03-.14-.14-.19-.2-.28-.16-.24-.37-.26-.64-.21-1.21,.25-2.42,.47-3.63,.71-.12,.02-.28-.01-.24,.23,.04,.22,.14,.23,.32,.2,.58-.09,1.16-.18,1.75-.26,.88-.13,1.76-.26,2.65-.39Zm-8.46-10.53c-.21,.04-.38,.09-.55,.11-.14,.02-.2,.09-.25,.21-.43,1.23-.85,2.45-1.29,3.67-.06,.17-.01,.22,.13,.27,.15,.06,.22,.05,.28-.12,.21-.56,.45-1.11,.67-1.66,.33-.82,.66-1.63,1-2.48Zm-7.1-.78c-.15,.14-.27,.25-.4,.35-.14,.1-.14,.21-.11,.36,.26,1.24,.51,2.47,.75,3.71,.04,.2,.11,.23,.29,.2,.22-.03,.17-.16,.14-.3-.14-.91-.28-1.82-.42-2.73-.08-.51-.16-1.03-.25-1.58Zm-3.12,.8c.56,1.37,1.11,2.73,1.65,4.08,.06,.16,.11,.24,.31,.16,.19-.07,.16-.17,.11-.31-.38-1.07-.78-2.14-1.12-3.23-.14-.44-.34-.7-.81-.71-.03,0-.05,0-.13,0Zm-7.71,7.47c.05,.22,.09,.41,.12,.6,.02,.1,.08,.14,.16,.16,1.28,.42,2.56,.85,3.84,1.28,.19,.06,.2-.05,.26-.17,.08-.15,.01-.19-.11-.23-.39-.14-.77-.29-1.16-.44-1.03-.39-2.06-.78-3.13-1.19Zm2.03-3.36s0,.04,0,.04c1.2,.94,2.39,1.87,3.59,2.81,.17,.13,.19-.06,.27-.12,.12-.09,.07-.16-.02-.24-1.02-.86-2.04-1.73-3.06-2.59-.07-.06-.14-.11-.25-.07-.18,.06-.36,.12-.54,.17Zm-2.85,6.4c.75,.11,1.44,.21,2.13,.31,.79,.12,1.58,.23,2.37,.36,.17,.03,.23-.03,.25-.19,.01-.12,.02-.21-.14-.24-1.33-.25-2.66-.51-3.98-.76-.08-.02-.14,0-.2,.06-.13,.14-.26,.28-.43,.46Zm22.19-8.59c-.98,1.2-1.94,2.36-2.9,3.53-.12,.15,0,.18,.08,.25,.1,.09,.16,.13,.28,0,.88-.99,1.77-1.98,2.66-2.96,.05-.06,.13-.11,.09-.21-.07-.19-.13-.38-.21-.6Zm2.27,2.2c-.21-.07-.38-.12-.54-.18-.12-.04-.21-.01-.3,.07-1.02,.87-2.04,1.73-3.06,2.59-.1,.09-.12,.15-.01,.24,.09,.07,.12,.24,.29,.09,.26-.22,.54-.42,.81-.63,.92-.72,1.85-1.43,2.81-2.18Zm-8.84-4.92c-.23,1.48-.45,2.91-.67,4.34-.03,.17,0,.25,.19,.28,.2,.03,.23-.07,.26-.22,.25-1.24,.5-2.49,.75-3.73,.02-.09,.05-.18-.04-.25-.15-.13-.3-.26-.48-.42Zm-10.55,2.72c-.04,.13-.06,.23-.11,.31-.15,.27-.07,.46,.13,.68,.85,.92,1.68,1.85,2.51,2.79,.13,.15,.2,.08,.31,0,.13-.09,.12-.17,.03-.28-.36-.43-.72-.86-1.07-1.3-.59-.72-1.18-1.43-1.8-2.19Zm21.05,6.98c-1.26,.36-2.48,.71-3.7,1.06-.18,.05-.11,.16-.08,.26,.03,.1,0,.27,.2,.21,.27-.07,.54-.13,.81-.19,.96-.23,1.93-.45,2.95-.69-.22-.18-.29-.37-.18-.64Zm-24.99,0c.16,.29,.03,.47-.14,.66,1.26,.29,2.48,.57,3.7,.87,.22,.05,.19-.11,.23-.21,.04-.12,.07-.21-.11-.26-1.2-.34-2.4-.68-3.68-1.05Zm15.48-8.77c-.31,1.24-.59,2.41-.89,3.58-.05,.2,.03,.23,.18,.27,.15,.04,.26,.06,.31-.15,.2-.73,.43-1.45,.65-2.17,.13-.44,.26-.87,.4-1.35-.27,.09-.47,.05-.66-.18Zm-5.39,3.89c.27,0,.37-.12,.3-.39-.26-1.05-.52-2.11-.77-3.16-.05-.19-.07-.39-.31-.14-.07,.07-.15,.05-.23,.03-.14-.04-.21-.02-.15,.15,.35,1.12,.68,2.25,1.02,3.38,.02,.07,.02,.15,.14,.14Zm-7.08-.25c.96,.89,1.88,1.73,2.8,2.58,.2,.18,.24-.04,.34-.11,.15-.1,.06-.17-.02-.26-.59-.6-1.18-1.21-1.78-1.81-.28-.28-.56-.55-.86-.84-.05,.25-.21,.37-.48,.44Zm18.96,.03c-.13-.13-.34-.1-.38-.29-.04-.18-.11-.17-.23-.05-.83,.85-1.66,1.7-2.49,2.55-.08,.08-.15,.16-.01,.23,.1,.06,.14,.3,.34,.12,.92-.85,1.84-1.7,2.78-2.56Zm-9.43,6.8s-.02,0-.03-.01v3.24s.02,0,.03,0v-3.23Z"/>
      <path class="cls-1" d="M14.84,35.5s.04,0,.06,0c.2-.02,.42-.22,.56-.1,.13,.11,.13,.37,.18,.56,.92,3.02,2.95,4.81,6.03,5.36,3.32,.59,6.6-1.16,8.03-4.21,.2-.43,.34-.87,.46-1.33,.11-.39,.11-.39,.5-.29,.09,.02,.21,.12,.27-.05,.21,.23,.57,.32,.79,.2,.14,.03,.29,.06,.43,.1,.03,0,.06,.02,.08,.03,.1,0,.2,0,.29,.04-.15,.12-.11,.15,.06,.19,.41,.1,.81,.26,1.23,.34,.08,.01,.16,.05,.17,.15-.16,.18-.24,.37-.17,.61-.09,.16-.22,.31-.11,.52-.2,.06-.31,.35-.19,.53-.15,.06-.21,.17-.19,.33-.18,.13-.28,.29-.22,.52,0,.12-.19,.14-.17,.27-.21,.12-.29,.32-.32,.55-.12,.05-.19,.14-.18,.28-.2,.09-.29,.25-.34,.45-.11,.08-.23,.16-.21,.33-.22,.04-.28,.24-.39,.39-.06,.14-.27,.14-.28,.33-.19,.1-.34,.25-.43,.45-.21,.03-.27,.23-.41,.34-.14,.04-.21,.16-.33,.23-.09,.06-.09,.12-.03,.2-.15,0-.29,.02-.36,.19-.22,.02-.37,.13-.47,.32-.18-.03-.16,.16-.26,.23-.14-.05-.54,.12-.57,.25,0,.02,.01,.05,.02,.08-.12,0-.24,0-.35,.07-.18,.06-.37,.1-.52,.25-.09,.12-.27,.05-.35,.19-.23-.05-.4,.04-.54,.21-.2-.03-.37,.05-.54,.13-.21-.01-.41,.05-.6,.15-.16-.02-.29,.06-.44,.07-.18,.06-.39-.02-.54,.15-.13-.02-.26,.03-.39,.06-.2-.11-.4-.07-.59,0-.12,0-.23,0-.35,0-.2,0-.41,0-.61,0-.12,0-.25,0-.37,0-.19-.06-.38-.11-.58,0-.14-.02-.28-.04-.4-.11-.18-.05-.36-.12-.56-.05-.15,0-.25-.16-.41-.11-.19-.11-.39-.15-.6-.16-.18-.04-.35-.14-.55-.12-.12-.2-.31-.23-.52-.22-.13-.05-.21-.19-.37-.17-.12-.16-.32-.19-.49-.27-.13-.01-.21-.12-.33-.17-.18-.1-.33-.27-.56-.26-.05-.12-.13-.2-.27-.19-.09-.19-.27-.27-.46-.34-.07-.13-.19-.19-.33-.22-.11-.26-.31-.39-.48-.3-.02-.22-.13-.35-.34-.42-.08-.22-.22-.38-.45-.44-.02-.18-.16-.22-.29-.29,.03-.24-.15-.35-.32-.45-.01-.18-.2-.17-.28-.28,.05-.19-.12-.44-.32-.46,0-.12-.02-.24-.13-.31-.03-.23-.14-.4-.31-.55,.02-.17-.2-.12-.22-.25,.16-.25-.05-.38-.17-.54,.01-.14-.11-.24-.12-.38-.08-.16-.03-.41-.27-.48,.05-.19,.03-.37-.13-.51,.09-.22-.06-.4-.1-.59,0-.19,.13-.19,.26-.24,.18-.06,.48,.02,.46-.33,.03,0,.05,0,.08,0,.03,0,.06-.02,.09-.03,.25-.06,.49-.13,.75-.13,.03,0,.05-.02,.08-.02,.15-.03,.29-.05,.44-.08,.29,0,.57-.07,.85-.17Zm.99,6.49h0c-.05,.1,.06,.12,.11,.16,1.89,1.55,4.07,2.38,6.51,2.47,2.55,.1,4.87-.61,6.93-2.14,1.89-1.4,3.18-3.22,3.85-5.48,.07-.22,0-.28-.19-.33-.7-.18-1.4-.37-2.1-.58-.23-.07-.32-.05-.39,.21-.19,.74-.52,1.44-.96,2.07-1.86,2.62-4.4,3.8-7.59,3.51-3.24-.29-5.93-2.57-6.83-5.71-.04-.16-.1-.19-.25-.15-.77,.22-1.54,.44-2.31,.65-.16,.04-.15,.1-.11,.23,.15,.57,.37,1.12,.62,1.65,.4,.85,.92,1.61,1.54,2.36,0-.18-.07-.33,.09-.45,.02,.04,.04,.06,.04,.09-.02,.23,.1,.38,.32,.41,.22,.03,.38-.11,.5-.29,.16-.24-.14-.22-.21-.35,.2-.07,.35-.18,.55-.2-.06,.65-.34,.94-.98,1.02-.01-.05-.06-.06-.08-.03-.03,.04,.04,.04,.05,.07,.19,.19,.39,.39,.58,.58,.04,.07,.06,.17,.17,.17,.04,.06,.08,.11,.16,.06Z"/>
      <path class="cls-1" d="M22.9,32.15v3.23s-.02,0-.03,0v-3.24s.02,0,.03,.01Z"/>
      <path class="cls-1" d="M14.72,34.9c.04,.07,.05,.14,.04,.22-.14-.05-.12-.13-.04-.22Z"/>
      <path class="cls-1" d="M30.95,35.29c.01-.06,.02-.11,.04-.17,.09,.08,.08,.13-.04,.17Z"/>
      <path class="cls-1" d="M14.78,35.28s.02,.04,.03,.06c0-.02-.02-.04-.03-.06Z"/>
      <path class="cls-1" d="M8.52,59.77c-.41,0-.81,0-1.22,0-.17,0-.23-.05-.22-.22,.01-.22,.02-.44,0-.66-.02-.21,.06-.3,.26-.26,.26,.04,.35-.06,.34-.33-.02-.76-.02-1.51,0-2.27,0-.24-.06-.35-.31-.31-.22,.04-.32-.04-.29-.28,.03-.28-.12-.65,.06-.82,.17-.16,.53-.04,.8-.05,.59,0,1.18,0,1.77,0,.2,0,.26,.06,.25,.25-.01,.22-.02,.44,0,.66,.01,.2-.06,.28-.25,.24-.27-.05-.34,.07-.33,.33,.02,.77,.01,1.53,0,2.3,0,.22,.06,.31,.28,.27,.25-.04,.33,.06,.3,.3-.03,.27,.12,.62-.06,.79-.16,.16-.51,.04-.78,.04-.2,0-.41,0-.61,0Zm0-4.97c-.31,0-.63,0-.94,0-.17,0-.28,.04-.23,.23,.04,.16-.16,.44,.22,.43,.18,0,.34,.03,.34,.27,0,.96,0,1.92,0,2.88,0,.16-.08,.26-.23,.24-.34-.03-.34,.17-.34,.42,0,.2,.06,.25,.25,.25,.62-.01,1.23,0,1.85,0,.13,0,.29,.02,.24-.18-.04-.16,.19-.47-.22-.46-.28,0-.36-.13-.35-.4,.01-.86,0-1.71,0-2.57,0-.38,.02-.4,.4-.43,.13,0,.18-.05,.17-.18,0-.08-.01-.17,0-.25,.03-.19-.05-.24-.23-.23-.31,.01-.63,0-.94,0Z"/>
      <path class="cls-1" d="M37.85,56.72c.19-.62,.39-1.21,.55-1.81,.07-.26,.17-.37,.47-.36,.68,.03,1.36,.02,2.05,0,.2,0,.29,.03,.27,.25-.02,.22-.02,.44,0,.66,.02,.2-.06,.27-.25,.24-.24-.04-.33,.05-.33,.31,.02,.77,.01,1.53,0,2.3,0,.22,.04,.34,.28,.3,.23-.04,.31,.05,.29,.28-.02,.21-.02,.42,0,.64,.01,.19-.06,.23-.24,.23-.76,0-1.51,0-2.27,0-.24,0-.42,0-.34-.37-.04,.44-.33,.4-.59,.36-.23-.03-.52,.15-.71-.2,0,.15-.04,.21-.18,.21-.71,0-1.42,0-2.13,0-.15,0-.19-.05-.19-.19,0-.24,.01-.48,0-.72-.01-.18,.06-.26,.24-.23,.3,.05,.37-.09,.36-.37-.02-.76-.01-1.51,0-2.27,0-.23-.07-.3-.28-.27-.26,.04-.34-.07-.31-.32,.03-.26-.11-.61,.05-.78,.17-.18,.52-.05,.79-.06,.52-.01,1.03,0,1.55,0,.19,0,.27,.06,.32,.24,.17,.62,.36,1.24,.54,1.86,0,.01,.02,.02,.05,.07Zm1.28-1s.03,0,.04,0c0,.9,0,1.8,0,2.71,0,.35-.04,.4-.4,.42-.36,.02-.16,.28-.2,.43-.04,.17,.06,.21,.22,.21,.62,0,1.24,0,1.85,0,.13,0,.29,.02,.24-.18-.04-.16,.19-.47-.22-.46-.25,0-.36-.1-.35-.37,.01-.88,.01-1.75,0-2.63,0-.26,.08-.41,.36-.4,.37,.01,.18-.26,.21-.41,.04-.18-.05-.23-.23-.23-.57,0-1.14,.01-1.71,0-.2,0-.29,.05-.35,.25-.25,.85-.51,1.7-.78,2.58-.03-.06-.04-.1-.05-.13-.25-.83-.5-1.66-.73-2.49-.05-.16-.1-.22-.28-.21-.54,.02-1.09,.03-1.63,0-.3-.02-.35,.09-.34,.35,0,.21,.02,.33,.28,.31,.18-.02,.3,.08,.3,.28,0,.94,0,1.88,0,2.82,0,.16-.07,.29-.24,.27-.35-.03-.33,.19-.33,.43,0,.18,.05,.24,.23,.24,.49-.01,.98,0,1.47,0,.13,0,.31,.04,.27-.19-.03-.17,.17-.46-.23-.46-.15,0-.34,0-.34-.23,0-.91,0-1.82,0-2.73,.05,.03,.06,.06,.07,.09,.33,1.09,.67,2.18,.99,3.28,.07,.25,.22,.25,.41,.24,.19,0,.36,.03,.43-.25,.12-.51,.29-1.01,.44-1.51,.2-.67,.41-1.35,.62-2.02Zm-.2,1.74s-.03-.01-.05-.02c-.09,.31-.19,.62-.28,.93-.02,.07-.09,.16,0,.23,.06,.05,.16,.03,.24,.02,.11-.02,.1-.12,.1-.2,0-.32,0-.64,0-.96Zm-2.44,.17h-.04c0,.29,0,.57,0,.86,0,.18,.13,.15,.24,.14,.16-.01,.07-.12,.05-.18-.08-.27-.16-.54-.24-.81Z"/>
      <path class="cls-1" d="M22.06,54.65c.51,.03,1.12-.06,1.72,.08,1.16,.26,1.66,1.58,.93,2.45-.38,.45-.88,.62-1.44,.65-.18,.01-.37,.02-.55,0-.26-.03-.33,.08-.29,.31,0,.05,0,.09,0,.14,0,.4-.08,.46,.4,.43,.14,0,.18,.04,.19,.19,.03,.81,.04,.81-.76,.81-.58,0-1.16,0-1.74,0-.16,0-.24-.04-.22-.21,.01-.19,.02-.39,0-.58-.02-.18,.06-.21,.22-.21,.36,0,.36,0,.36-.37,0-.79,0-1.59,0-2.38,0-.24-.06-.35-.31-.31-.21,.03-.31-.04-.28-.27,.03-.23-.1-.55,.06-.68,.13-.12,.44-.04,.67-.04,.31,0,.63,0,1.04,0Zm0,.19s0-.01,0-.02c-.45,0-.9,0-1.36,0-.17,0-.28,.03-.24,.22,.04,.15-.16,.43,.21,.41,.28-.01,.37,.13,.36,.39,0,.89,0,1.77,0,2.66,0,.26-.1,.38-.36,.37-.36-.02-.18,.26-.22,.41-.04,.18,.05,.23,.23,.23,.62,0,1.24,0,1.85,0,.16,0,.31,0,.27-.22-.03-.16,.13-.44-.24-.42-.24,.02-.35-.11-.34-.35,.01-.2,.01-.41,0-.61-.01-.19,.04-.26,.24-.25,.36,.01,.72,.02,1.08-.04,.74-.12,1.28-.66,1.3-1.3,.02-.81-.54-1.41-1.41-1.46-.46-.03-.92,0-1.38,0Z"/>
      <path class="cls-1" d="M15.49,41.77c0-.11,0-.22,0-.33,0-.06,.04-.11,.1-.12,.07-.01,.08,.05,.11,.1,.17,.42,.8,.66,1.22,.47,.1-.04,.13-.13,.17-.2,.03-.05,.06-.1,.12-.1,.08,0,.09,.07,.12,.13,.11,.31,.25,.33,.48,.12,.25-.24,.43-.53,.64-.79,.15,.12,.14,.22,0,.34-.19,.18-.36,.38-.56,.6,.24,.06,.45,.11,.64,.18,.14,.05,.25,.13,.14,.31-.11,.17,.11,.25,.14,.26,.2,.09,.3,.39,.57,.32,.13-.03,.14,.03,.16,.12,.11,.34,.23,.36,.47,.09q.15-.17,.35-.23c-.13,.28-.31,.47-.57,.58-.19,.08-.32-.03-.39-.21-.03-.09-.08-.12-.18-.16-.23-.08-.57-.05-.61-.42,0-.07-.09-.09-.14-.12-.38-.21-.76-.42-1.14-.62-.06-.03-.13-.1-.2-.06-.45,.24-.89,.11-1.33-.05,0,0,0,0,0,0-.03-.09-.1-.05-.16-.06-.11,0-.13-.09-.17-.17Zm2.97,.57c-.11-.14-.25-.16-.39-.15-.03,0-.07,.05-.03,.08,.12,.09,.25,.15,.4,.11,0,0,.01-.01,.03-.04Z"/>
      <path class="cls-1" d="M15.67,41.93c.06,0,.13-.04,.16,.06-.08,.05-.12,0-.16-.06Z"/>
      <path class="cls-1" d="M14.91,41.19s-.08-.03-.05-.07c.02-.03,.07-.01,.08,.03,0,.01-.02,.02-.03,.04Z"/>
      <path class="cls-1" d="M12.64,35.94s.06-.02,.09-.03c-.03,0-.06,.02-.09,.03Z"/>
      <path class="cls-1" d="M32.15,35.75s.06,.02,.08,.03c-.03,0-.06-.02-.08-.03Z"/>
      <path class="cls-1" d="M13.48,35.78s.05-.02,.08-.02c-.03,0-.05,.02-.08,.02Z"/>
      <path class="cls-1" d="M38.94,57.47c0,.32,0,.64,0,.96,0,.08,.01,.18-.1,.2-.08,.02-.17,.04-.24-.02-.08-.07-.01-.15,0-.23,.09-.31,.19-.62,.28-.93,.02,0,.03,.01,.05,.02Z"/>
      <path class="cls-1" d="M36.5,57.64c.08,.27,.17,.54,.24,.81,.02,.07,.11,.17-.05,.18-.1,0-.24,.04-.24-.14,0-.28,0-.57,0-.85h.04Z"/>
      <path class="cls-1" d="M25.77,41.54c.11,.12,.16,.25,.2,.38,.11,.39,.35,.7,.59,1.02,.17,.22,.66,.2,.82-.02,.07-.09-.02-.1-.06-.14-.1-.09-.18-.18-.04-.29,.14-.11,.27-.1,.38,.06,.17,.25,.34,.29,.57,.14,.22-.14,.26-.35,.1-.59-.15-.23-.33-.45-.47-.68-.1-.17-.19-.36-.04-.6,.24,.53,.5,1,.77,1.48,.09,.16-.04,.35-.21,.46-.03,.02-.06,.04-.1,.05-.38,.07-.73,.21-1.08,.38-.33,.16-.73,.15-1.07,.39-.22,.16-.53,.07-.79,.04-.16-.01-.23,.04-.32,.14-.21,.23-.41,.46-.81,.49,.42-.31,.75-.61,.97-1.03,.08-.16,.26-.14,.43,.1,.17,.23,.35,.19,.55,.11,.23-.1,.28-.29,.15-.51-.21-.32-.45-.63-.59-.99-.05-.13-.07-.24,.06-.36Z"/>
      <path class="cls-1" d="M20.86,42.04c.15,.06,.2,.15,.18,.3-.03,.33-.15,.64-.21,.97-.04,.23-.09,.45,.16,.58,.24,.13,.47,.12,.68-.09,.06-.06,.12-.16,.23-.11,.11,.06,.16,.18,.17,.3,0,.1-.06,.24-.16,.21-.34-.09-.72,0-1.04-.2-.19-.12-.32-.29-.26-.5,.12-.44,.19-.88,.22-1.32,0-.04,.03-.08,.05-.13Z"/>
      <path class="cls-1" d="M23.1,44.09c.13,.02,.23,.05,.33,.05,.17,0,.35-.01,.38-.23,.03-.21-.1-.34-.25-.46-.06-.05-.1,0-.14,.03-.07,.03-.16,.16-.21,0-.04-.13-.05-.29,.04-.42,.03-.04,.09,.01,.12,.04,.18,.14,.37,.28,.53,.44,.2,.21,.17,.53-.04,.68-.25,.17-.59,.12-.75-.14Z"/>
      <path class="cls-1" d="M28.63,40.83c.33-.02,.65-.05,.97,.07,.27,.1,.44,.38,.35,.57-.11,.24-.43,.35-.65,.23,.02-.05,.07-.04,.12-.05,.16-.04,.31-.11,.32-.29,.02-.2-.14-.27-.29-.32-.15-.05-.33-.11-.42,.11-.04,.09-.09,.09-.16,.02-.09-.09-.21-.16-.31-.23,.02-.03,.05-.07,.07-.1Z"/>
      <path class="cls-1" d="M30.69,39.74c.21,.01,.39,.02,.54-.1,.4-.32,.35-.8-.12-1-.04-.02-.09-.03-.08-.09,0-.07,.06-.08,.12-.09,.29-.05,.58,.24,.57,.57,0,.37-.42,.84-.78,.89-.12,.02-.18-.04-.25-.17Z"/>
      <path class="cls-1" d="M14.35,38.61c-.38,.43-.31,.87,.14,1.1,.14,.07,.27,.1,.42,.01,.07-.04,.19-.12,.23,0,.05,.12-.09,.13-.17,.17-.18,.09-.36,.1-.54-.04-.22-.16-.4-.35-.51-.6-.15-.33,.02-.6,.43-.65Z"/>
      <path class="cls-1" d="M30.07,38.19c.13,.21,.04,.34-.04,.47-.15,.26-.46,.41-.49,.75,0,.09-.11,.03-.16,.01-.09-.03-.16-.08-.11-.18,.03-.06,.08-.13,.13-.17,.29-.22,.49-.51,.66-.88Z"/>
      <path class="cls-1" d="M28.07,40.77c.36,.15,.96,1.1,.89,1.44-.3-.48-.59-.95-.89-1.44Z"/>
      <path class="cls-1" d="M29.61,40.28c-.18,.21-.32,.09-.45-.06-.06-.06-.09-.18-.18-.03-.02,.04-.07,.06-.12,.04-.05-.03-.03-.08-.02-.12,.06-.12,.07-.26,.19-.35,.2,.15,.15,.58,.55,.48,.01,.02,.02,.03,.03,.05Z"/>
      <path class="cls-1" d="M18.58,41.77c.16-.04,.32-.01,.44-.17,.07-.09,.17-.03,.23,.05,.08,.1-.02,.15-.09,.19-.21,.12-.4,.03-.58-.07Z"/>
      <path class="cls-1" d="M17.03,41.12c.21-.03,.36,0,.43-.17,.02-.05,.13-.06,.2-.02,.06,.03,.1,.08,.1,.15,0,.09-.08,.13-.15,.14-.17,.03-.35,.05-.59-.09Z"/>
      <path class="cls-1" d="M22.55,42.74c.16-.21,.28-.36,.4-.51,.03-.04,.07-.06,.12-.03,.04,.03,.03,.08,.02,.13-.09,.21-.25,.34-.53,.41Z"/>
      <path class="cls-1" d="M21.38,43.27c.15-.18,.28-.29,.42-.38,.05-.03,.1-.1,.16-.02,.04,.06,.02,.12-.04,.17-.14,.11-.29,.21-.54,.23Z"/>
      <path class="cls-1" d="M26.48,41.83c.08-.2,.14-.34,.2-.48,.02-.05,.03-.14,.13-.1,.07,.03,.07,.1,.05,.16-.05,.18-.17,.29-.38,.41Z"/>
      <path class="cls-1" d="M15.05,38.64c.18,.03,.35,.06,.53,.1,.05,.01,.15,0,.13,.09-.02,.07-.09,.1-.18,.08-.18-.05-.36-.1-.48-.28Z"/>
      <path class="cls-1" d="M24.79,42.13c.16-.13,.33-.26,.46-.42,.03-.04,.07-.09,.13-.03,.07,.06,.03,.12-.02,.16-.17,.14-.35,.25-.57,.29Z"/>
      <path class="cls-1" d="M24.97,44.34c.1-.14,.19-.28,.29-.42,.04-.06,.1-.12,.17-.05,.09,.08,0,.13-.04,.18-.12,.12-.25,.22-.38,.33-.01-.01-.03-.03-.04-.04Z"/>
      <path class="cls-1" d="M19.57,42.33c.07,.03,.14,.05,.15,.14,0,.06-.06,.12-.1,.11-.08-.03-.16-.08-.2-.15-.02-.03,.08-.07,.15-.09Z"/>
      <path class="cls-1" d="M27.46,40.97c-.08,.04-.2-.11-.24,.05,0,0-.06,.01-.06,0-.02-.03-.03-.07-.03-.1,.01-.08,.07-.14,.14-.14,.11,0,.18,.05,.19,.18Z"/>
      <path class="cls-1" d="M16.58,39.96c-.01-.09-.1-.12-.14-.19-.02-.04,.05-.06,.1-.06,.1,0,.16,.04,.17,.14,0,.06-.03,.1-.12,.12Z"/>
      <path class="cls-1" d="M29.62,40.19s.04-.1,.07-.18c.05,.09,.05,.15-.02,.21-.02-.01-.03-.02-.05-.03Z"/>
      <path class="cls-1" d="M29.58,40.23s.03-.03,.04-.04c.02,.01,.03,.02,.05,.03-.02,.02-.04,.04-.05,.06-.01-.02-.02-.03-.03-.05Z"/>
      <path class="cls-1" d="M18.47,42.34s-.02,.03-.03,.04c-.15,.04-.28-.02-.4-.11-.04-.03,0-.08,.03-.08,.15,0,.29,.02,.39,.15Z"/>
      <path class="cls-1" d="M22.24,56.22s0-.06,0-.08c.09-.18-.22-.54,.22-.56,.76-.03,1.09,.15,1.12,.59,.03,.44-.21,.7-.67,.73q-.68,.06-.68-.68Zm.16,.04c.14,.14-.21,.51,.26,.5,.51,0,.77-.17,.78-.5,0-.34-.23-.48-.76-.5-.44-.01-.17,.32-.28,.49Z"/>
    </g>
  </g>
</svg>